<mxfile host="app.diagrams.net" modified="2024-04-29T05:42:03.417Z" agent="Mozilla/5.0 (Windows NT 10.0; Win64; x64) AppleWebKit/537.36 (KHTML, like Gecko) Chrome/123.0.0.0 Safari/537.36 Edg/123.0.0.0" version="24.3.1" etag="UX-PDj19iuiG38BfHdAp" type="github">
  <diagram name="第 1 页" id="kOcAIW3cvi04m-ZjjmON">
    <mxGraphModel>
      <root>
        <mxCell id="0" />
        <mxCell id="1" parent="0" />
      </root>
    </mxGraphModel>
  </diagram>
</mxfile>
